<svg xmlns="http://www.w3.org/2000/svg" width="514.667" height="514.667" preserveAspectRatio="xMidYMid meet" version="1.0" viewBox="0 0 386 386"><metadata>Created by potrace 1.14, written by Peter Selinger 2001-2017</metadata><g fill="#000" stroke="none"><path d="M1556 3779 c-33 -9 -78 -48 -70 -60 3 -5 1 -9 -5 -9 -6 0 -9 -69 -8 -190 2 -145 -1 -190 -10 -190 -12 0 -54 25 -178 105 -68 44 -149 83 -177 86 -37 3 -77 -18 -90 -48 -6 -16 -13 -53 -14 -83 -2 -30 -4 -57 -5 -60 -1 -3 0 -9 1 -15 5 -24 6 -274 0 -289 -4 -12 -31 1 -134 67 -71 45 -132 80 -134 79 -3 -2 -8 1 -11 6 -3 5 -25 19 -48 31 -106 53 -177 2 -175 -128 0 -71 10 -430 17 -681 3 -85 7 -243 10 -350 9 -367 16 -605 20 -670 9 -155 86 -283 225 -378 56 -38 210 -132 216 -132 3 0 10 -5 17 -10 23 -20 188 -120 198 -120 5 0 9 -4 9 -8 0 -5 18 -17 40 -27 22 -10 40 -23 40 -28 0 -6 3 -8 6 -4 3 3 11 2 18 -4 24 -20 87 -59 96 -59 6 0 10 -3 10 -7 0 -5 29 -24 65 -43 36 -19 65 -38 65 -42 0 -5 5 -8 10 -8 6 0 37 -17 68 -38 32 -21 64 -41 72 -45 21 -9 312 -194 327 -206 7 -6 14 -11 17 -11 3 0 36 -20 73 -44 87 -56 154 -86 192 -86 45 0 88 56 87 115 -1 25 3 45 7 45 5 0 5 4 2 10 -11 17 -17 330 -6 330 11 0 74 -32 81 -41 3 -4 21 -16 40 -27 19 -11 64 -38 100 -60 122 -77 156 -89 222 -83 9 0 26 21 38 46 23 47 23 54 17 324 -2 53 2 85 9 88 6 2 38 -14 71 -37 33 -22 66 -40 72 -40 6 0 11 -4 11 -10 0 -5 4 -10 9 -10 4 0 40 -19 79 -41 80 -46 124 -54 164 -31 54 31 60 65 53 307 -3 121 -6 227 -5 235 2 115 1 162 -4 167 -3 3 -1 13 4 23 5 10 6 20 3 24 -4 3 -8 63 -9 134 -10 515 -23 936 -29 971 -12 69 -20 91 -51 151 -33 64 -127 180 -146 180 -5 0 -15 6 -22 13 -10 10 -150 99 -296 188 -8 5 -77 47 -153 94 -76 47 -141 85 -143 85 -3 0 -24 13 -47 29 -76 52 -468 291 -478 291 -5 0 -9 5 -9 10 0 6 -4 10 -10 10 -9 0 -72 39 -97 60 -7 5 -17 10 -22 10 -5 0 -16 6 -23 13 -16 14 -26 20 -123 78 -38 22 -78 43 -88 44 -9 2 -20 6 -25 8 -4 2 -20 1 -36 -4z" transform="translate(0.000000,386.000000) scale(0.100000,-0.100000)"/></g></svg>