<svg xmlns="http://www.w3.org/2000/svg" width="17" height="17" preserveAspectRatio="xMidYMid meet" version="1.0" viewBox="0 0 1920 1962"><g fill="#000" stroke="none"><path d="M42 19558 c25 -35 361 -524 748 -1088 388 -564 806 -1172 930 -1352 124 -180 578 -842 1010 -1470 999 -1454 1589 -2313 3344 -4866 780 -1135 1415 -2068 1413 -2075 -3 -7 -57 -71 -119 -143 -62 -72 -287 -333 -499 -580 -213 -247 -476 -552 -585 -679 -109 -126 -308 -358 -443 -515 -135 -157 -313 -364 -396 -460 -83 -96 -249 -290 -370 -430 -121 -140 -314 -365 -430 -500 -290 -337 -542 -630 -856 -995 -147 -171 -428 -497 -624 -725 -196 -228 -477 -554 -624 -725 -146 -170 -349 -407 -451 -525 -102 -118 -437 -507 -745 -865 -307 -357 -642 -747 -744 -865 -102 -118 -268 -312 -370 -430 -101 -118 -196 -227 -209 -243 l-26 -27 850 1 849 0 340 396 c378 441 726 845 1094 1273 135 157 329 382 430 500 102 118 240 278 306 355 66 77 219 255 340 395 121 140 314 365 430 500 116 135 296 344 400 465 104 121 284 330 400 465 299 347 549 638 856 995 147 171 426 495 620 721 195 226 528 613 740 860 556 646 583 677 594 680 6 2 110 -142 231 -319 296 -431 2320 -3376 3807 -5539 l1201 -1748 2859 0 2858 0 -105 153 c-114 166 -1356 1974 -1589 2312 -79 116 -531 773 -1003 1460 -812 1181 -1643 2391 -3194 4648 -2011 2925 -1883 2736 -1869 2755 13 16 171 201 560 652 101 118 297 346 434 505 137 160 304 353 370 430 66 77 219 255 340 395 368 429 643 748 770 895 66 77 233 271 370 430 543 632 684 796 800 930 66 77 219 255 340 395 316 367 567 659 740 860 83 96 275 319 426 495 626 727 921 1071 1725 2006 126 146 235 273 243 282 13 16 -41 17 -832 17 l-846 0 -278 -322 c-152 -178 -332 -386 -398 -463 -67 -77 -220 -255 -340 -395 -121 -140 -287 -334 -370 -430 -154 -179 -336 -390 -766 -890 -135 -157 -334 -388 -443 -515 -109 -126 -316 -367 -460 -535 -145 -168 -377 -438 -516 -600 -140 -162 -322 -374 -405 -470 -153 -178 -430 -499 -770 -895 -104 -121 -270 -314 -370 -430 -265 -308 -653 -759 -868 -1010 -104 -121 -197 -228 -207 -238 -16 -17 -26 -5 -222 280 -113 164 -582 847 -1043 1518 -1354 1971 -3261 4745 -3493 5083 l-215 312 -2859 0 -2860 0 44 -62z m5483 -2099 c341 -487 780 -1115 976 -1395 196 -280 661 -945 1034 -1479 373 -533 840 -1202 1038 -1485 198 -283 552 -789 787 -1125 1327 -1898 1671 -2390 1933 -2765 160 -228 545 -779 857 -1225 312 -445 760 -1087 997 -1425 236 -338 670 -959 965 -1380 592 -847 924 -1322 1971 -2820 390 -558 730 -1043 754 -1078 l44 -62 -1303 2 -1302 3 -491 701 c-269 385 -650 930 -846 1210 -196 280 -675 966 -1066 1524 -390 558 -903 1292 -1140 1630 -236 338 -655 937 -929 1330 -275 393 -647 924 -826 1180 -906 1297 -1792 2565 -2688 3845 -635 908 -918 1313 -1863 2665 -889 1271 -1585 2266 -1854 2650 -144 206 -263 378 -263 383 0 4 584 6 1298 5 l1297 -3 620 -886z" transform="translate(0.000000,1962.000000) scale(0.100000,-0.100000)"/></g></svg>